<svg xmlns="http://www.w3.org/2000/svg" version="1.1" xmlns:xlink="http://www.w3.org/1999/xlink" xmlns:svgjs="http://svgjs.dev/svgjs" width="1440" height="560" preserveAspectRatio="none" viewBox="0 0 1440 560">
    <g mask="url(&quot;#SvgjsMask1040&quot;)" fill="none">
        <rect width="1440" height="560" x="0" y="0" fill="#0e2a47"></rect>
        <path d="M0,635.095C121.165,657.416,247.175,612.495,351.063,546.264C455.164,479.897,551.61,385.115,580.412,265.065C607.913,150.438,541.473,38.3,499.344,-71.795C465.593,-159.996,428.754,-247.258,359.711,-311.691C294.954,-372.124,207.172,-391.805,123.947,-422.126C34.631,-454.666,-52.886,-516.879,-145.573,-495.777C-239.269,-474.446,-291.823,-379.661,-360.006,-311.947C-434.274,-238.19,-548.271,-184.575,-563.238,-80.981C-578.205,22.612,-484.834,106.736,-433.691,198.06C-387.051,281.344,-343.973,362.857,-276.737,430.612C-194.277,513.708,-115.13,613.886,0,635.095" fill="#0b2137"></path>
        <path d="M1440 1014.121C1534.446 1016.006 1644.279 1051.186 1716.645 990.467 1789.703 929.168 1743.729 803.183 1790.475 720.057 1844.233 624.461 2014.019 588.107 2004.347 478.859 1994.887 372.002 1842.882 346.89099999999996 1752.344 289.352 1687.234 247.973 1621.979 213.868 1548.828 189.365 1472.858 163.918 1397.306 133.969 1317.792 143.796 1229.975 154.649 1132.126 176.45800000000003 1079.241 247.39999999999998 1026.7440000000001 317.822 1057.068 416.339 1049.394 503.839 1042.224 585.595 1015.406 665.13 1035.6309999999999 744.669 1058.336 833.9580000000001 1093.694 928.476 1170.362 979.5640000000001 1247.328 1030.85 1347.53 1012.275 1440 1014.121" fill="#113357"></path>
    </g>
    <defs>
        <mask id="SvgjsMask1040">
            <rect width="1440" height="560" fill="#ffffff"></rect>
        </mask>
    </defs>
</svg>